<svg viewBox="0 0 24 24" xmlns="http://www.w3.org/2000/svg" xmlns:xlink="http://www.w3.org/1999/xlink" width="24.000000" height="24.000000" fill="none" customFrame="#000000">
	<rect id="Light/Social Icons" width="24.000000" height="24.000000" x="0.000000" y="0.000000" fill="rgb(255,255,255)" fill-opacity="0" />
	<g id="vuesax/linear/facebook">
		<g id="facebook">
			<path id="BG 1" opacity="0.579999983" />
			<path id="Vector" d="M14 12.2L16.6 12.2C16.8 12.2 16.9 12.4 16.9 12.6L16.5 14.5C16.5 14.6 16.3 14.7 16.2 14.7L14 14.7L14 22L11 22L11 14.8L9.3 14.8C9.1 14.8 9 14.7 9 14.5L9 12.6C9 12.4 9.1 12.3 9.3 12.3L11 12.3L11 9C11 7.3 12.3 6 14 6L16.7 6C16.9 6 17 6.1 17 6.3L17 8.7C17 8.9 16.9 9 16.7 9L14.3 9C14.1 9 14 9.1 14 9.3L14 12.2Z" fill-rule="nonzero" stroke="rgb(255,255,255)" stroke-width="1" />
			<path id="Vector" d="M9 22C4 22 2 20 2 15L2 9C2 4 4 2 9 2L15 2C20 2 22 4 22 9L22 15C22 20 20 22 15 22L9 22Z" fill-rule="nonzero" stroke="rgb(255,255,255)" stroke-width="1" />
			<path id="Vector" opacity="0" />
		</g>
	</g>
</svg>
