<svg width="24.000000" height="39.000000" viewBox="0 0 24 39" fill="none" xmlns="http://www.w3.org/2000/svg" xmlns:xlink="http://www.w3.org/1999/xlink">
	<desc>
			Created with Pixso.
	</desc>
	<defs>
		<clipPath id="clip32_1985">
			<rect id="heart 1" rx="0.000000" width="23.000000" height="38.000000" transform="translate(0.500000 0.500000)" fill="white" fill-opacity="0"/>
		</clipPath>
	</defs>
	<rect id="heart 1" rx="0.000000" width="23.000000" height="38.000000" transform="translate(0.500000 0.500000)" fill="#FFFFFF" fill-opacity="0"/>
	<g clip-path="url(#clip32_1985)">
		<path id="Vector" d="M19.05 10.91C18.38 10.64 17.67 10.49 16.95 10.49C16.22 10.49 15.51 10.64 14.84 10.91C14.17 11.19 13.57 11.59 13.06 12.1L12 13.16L10.94 12.1C9.9 11.07 8.5 10.49 7.05 10.49C5.59 10.49 4.19 11.07 3.16 12.1C2.12 13.14 1.54 14.54 1.54 16C1.54 17.45 2.12 18.85 3.16 19.88L4.22 20.94L12 28.73L19.78 20.94L20.84 19.88C21.35 19.37 21.75 18.77 22.03 18.1C22.3 17.43 22.45 16.72 22.45 16C22.45 15.27 22.3 14.56 22.03 13.89C21.75 13.22 21.35 12.62 20.84 12.1C20.32 11.59 19.72 11.19 19.05 10.91Z" stroke="#3C3C3B" stroke-opacity="1.000000" stroke-width="2.000000" stroke-linejoin="round"/>
	</g>
</svg>
