<svg width="18.269531" height="26.007812" viewBox="0 0 18.2695 26.0078" fill="none" xmlns="http://www.w3.org/2000/svg" xmlns:xlink="http://www.w3.org/1999/xlink">
	<desc>
			Created with Pixso.
	</desc>
	<defs/>
	<path id="Polygon 1" d="M1.58 0.18L17.42 11.37Q17.83 11.66 18.05 12.1Q18.26 12.52 18.26 13Q18.26 13.47 18.05 13.9Q17.83 14.34 17.42 14.63L1.58 25.82L0.42 24.18L16.26 13L16.26 13L0.42 1.82L1.58 0.18ZM1.58 25.79L1.58 25.82C1.12 26.14 0.5 26.03 0.18 25.58C-0.14 25.12 -0.04 24.5 0.42 24.18L0.45 24.19L1.58 25.79ZM0.45 1.81L0.42 1.82C-0.04 1.49 -0.14 0.88 0.18 0.42C0.5 -0.04 1.12 -0.14 1.58 0.18L1.58 0.21L0.45 1.81Z" fill="#F0BA4E" fill-opacity="1.000000" fill-rule="evenodd"/>
</svg>
