<svg width="18.269531" height="26.007812" viewBox="0 0 18.2695 26.0078" fill="none" xmlns="http://www.w3.org/2000/svg" xmlns:xlink="http://www.w3.org/1999/xlink">
	<desc>
			Created with Pixso.
	</desc>
	<defs/>
	<path id="Polygon 1" d="M16.68 0.18L0.84 11.37Q0.43 11.66 0.21 12.1Q0 12.52 0 13Q0 13.47 0.21 13.9Q0.43 14.34 0.84 14.63L16.68 25.82L17.84 24.18L2 13L2 13L17.84 1.82L16.68 0.18ZM16.68 25.79L16.68 25.82C17.14 26.14 17.76 26.03 18.08 25.58C18.4 25.12 18.29 24.5 17.84 24.18L17.81 24.19L16.68 25.79ZM17.81 1.81L17.84 1.82C18.29 1.49 18.4 0.88 18.08 0.42C17.76 -0.04 17.14 -0.14 16.68 0.18L16.68 0.21L17.81 1.81Z" fill="#F0BA4E" fill-opacity="1.000000" fill-rule="evenodd"/>
</svg>
