<svg viewBox="0 0 24 24" xmlns="http://www.w3.org/2000/svg" xmlns:xlink="http://www.w3.org/1999/xlink" width="24.000000" height="24.000000" fill="none">
	<defs>
		<clipPath id="clipPath_0">
			<rect width="24.000000" height="24.000000" x="0.000000" y="0.000000" fill="rgb(255,255,255)" />
		</clipPath>
	</defs>
	<rect id="Dark/Mini Button" width="24.000000" height="24.000000" x="0.000000" y="0.000000" />
	<g id="Light/Social Icons" customFrame="url(#clipPath_0)">
		<rect id="Light/Social Icons" width="24.000000" height="24.000000" x="0.000000" y="0.000000" fill="rgb(255,255,255)" fill-opacity="0" />
		<g id="vuesax/linear/youtube">
			<g id="youtube">
				<path id="BG 1" opacity="0.579999983" />
				<path id="Vector" d="M7 20C4 20 2 18 2 15L2 9C2 6 4 4 7 4L17 4C20 4 22 6 22 9L22 15C22 18 20 20 17 20L7 20Z" fill-rule="nonzero" stroke="rgb(255,255,255)" stroke-width="1" />
				<path id="Vector" d="M13.9001 11.0003C14.8001 11.6003 14.8001 12.5003 13.9001 13.1003L11.4001 14.6003C10.4001 15.2003 9.6001 14.7003 9.6001 13.6003L9.6001 10.6003C9.6001 9.3003 10.4001 8.9003 11.4001 9.5003L13.9001 11.0003Z" fill-rule="nonzero" stroke="rgb(255,255,255)" stroke-width="1" />
				<path id="Vector" opacity="0" />
			</g>
		</g>
	</g>
</svg>
